<svg width="709" height="366" viewBox="0 0 709 366" fill="none" xmlns="http://www.w3.org/2000/svg">
<g filter="url(#filter0_f_6_19)">
<path d="M30.296 303.571C37.674 303.571 43.099 305.865 46.571 310.453C50.105 314.979 51.872 321.303 51.872 329.425C51.872 337.485 50.105 343.964 46.571 348.862C43.099 353.76 37.643 356.209 30.203 356.209C22.763 356.209 17.369 354.039 14.021 349.699C10.735 345.297 9.092 338.725 9.092 329.983C9.092 312.375 16.16 303.571 30.296 303.571ZM19.136 343.933C19.942 346.165 21.275 347.839 23.135 348.955C24.995 350.009 27.227 350.536 29.831 350.536C32.497 350.536 34.667 350.133 36.341 349.327C38.015 348.521 39.286 347.56 40.154 346.444C41.084 345.328 41.766 343.778 42.2 341.794C42.944 338.694 43.316 334.726 43.316 329.89C43.316 316.188 38.976 309.337 30.296 309.337C27.94 309.337 25.894 309.771 24.158 310.639C22.484 311.507 21.213 312.561 20.345 313.801C19.477 315.041 18.795 316.622 18.299 318.544C17.555 321.52 17.183 324.868 17.183 328.588C17.183 332.308 17.307 335.253 17.555 337.423C17.803 339.531 18.33 341.701 19.136 343.933ZM77.479 307.663C77.479 307.663 77.107 321.334 76.363 348.676L84.733 349.42C84.733 351.156 84.206 353.016 83.152 355H58.693L58.507 351.838C60.615 351.218 64.304 350.443 69.574 349.513C69.45 345.421 69.295 339.314 69.109 331.192C68.923 323.008 68.768 316.87 68.644 312.778C63.622 315.072 60.119 316.312 58.135 316.498C57.081 314.762 56.492 312.84 56.368 310.732L74.503 304.594C76.363 305.958 77.355 306.981 77.479 307.663ZM110.992 307.663C110.992 307.663 110.62 321.334 109.876 348.676L118.246 349.42C118.246 351.156 117.719 353.016 116.665 355H92.2057L92.0197 351.838C94.1277 351.218 97.8167 350.443 103.087 349.513C102.963 345.421 102.808 339.314 102.622 331.192C102.436 323.008 102.281 316.87 102.157 312.778C97.1347 315.072 93.6317 316.312 91.6477 316.498C90.5937 314.762 90.0047 312.84 89.8807 310.732L108.016 304.594C109.876 305.958 110.868 306.981 110.992 307.663ZM146.364 303.571C153.742 303.571 159.167 305.865 162.639 310.453C166.173 314.979 167.94 321.303 167.94 329.425C167.94 337.485 166.173 343.964 162.639 348.862C159.167 353.76 153.711 356.209 146.271 356.209C138.831 356.209 133.437 354.039 130.089 349.699C126.803 345.297 125.16 338.725 125.16 329.983C125.16 312.375 132.228 303.571 146.364 303.571ZM135.204 343.933C136.01 346.165 137.343 347.839 139.203 348.955C141.063 350.009 143.295 350.536 145.899 350.536C148.565 350.536 150.735 350.133 152.409 349.327C154.083 348.521 155.354 347.56 156.222 346.444C157.152 345.328 157.834 343.778 158.268 341.794C159.012 338.694 159.384 334.726 159.384 329.89C159.384 316.188 155.044 309.337 146.364 309.337C144.008 309.337 141.962 309.771 140.226 310.639C138.552 311.507 137.281 312.561 136.413 313.801C135.545 315.041 134.863 316.622 134.367 318.544C133.623 321.52 133.251 324.868 133.251 328.588C133.251 332.308 133.375 335.253 133.623 337.423C133.871 339.531 134.398 341.701 135.204 343.933ZM195.407 303.571C202.785 303.571 208.21 305.865 211.682 310.453C215.216 314.979 216.983 321.303 216.983 329.425C216.983 337.485 215.216 343.964 211.682 348.862C208.21 353.76 202.754 356.209 195.314 356.209C187.874 356.209 182.48 354.039 179.132 349.699C175.846 345.297 174.203 338.725 174.203 329.983C174.203 312.375 181.271 303.571 195.407 303.571ZM184.247 343.933C185.053 346.165 186.386 347.839 188.246 348.955C190.106 350.009 192.338 350.536 194.942 350.536C197.608 350.536 199.778 350.133 201.452 349.327C203.126 348.521 204.397 347.56 205.265 346.444C206.195 345.328 206.877 343.778 207.311 341.794C208.055 338.694 208.427 334.726 208.427 329.89C208.427 316.188 204.087 309.337 195.407 309.337C193.051 309.337 191.005 309.771 189.269 310.639C187.595 311.507 186.324 312.561 185.456 313.801C184.588 315.041 183.906 316.622 183.41 318.544C182.666 321.52 182.294 324.868 182.294 328.588C182.294 332.308 182.418 335.253 182.666 337.423C182.914 339.531 183.441 341.701 184.247 343.933ZM244.45 303.571C251.828 303.571 257.253 305.865 260.725 310.453C264.259 314.979 266.026 321.303 266.026 329.425C266.026 337.485 264.259 343.964 260.725 348.862C257.253 353.76 251.797 356.209 244.357 356.209C236.917 356.209 231.523 354.039 228.175 349.699C224.889 345.297 223.246 338.725 223.246 329.983C223.246 312.375 230.314 303.571 244.45 303.571ZM233.29 343.933C234.096 346.165 235.429 347.839 237.289 348.955C239.149 350.009 241.381 350.536 243.985 350.536C246.651 350.536 248.821 350.133 250.495 349.327C252.169 348.521 253.44 347.56 254.308 346.444C255.238 345.328 255.92 343.778 256.354 341.794C257.098 338.694 257.47 334.726 257.47 329.89C257.47 316.188 253.13 309.337 244.45 309.337C242.094 309.337 240.048 309.771 238.312 310.639C236.638 311.507 235.367 312.561 234.499 313.801C233.631 315.041 232.949 316.622 232.453 318.544C231.709 321.52 231.337 324.868 231.337 328.588C231.337 332.308 231.461 335.253 231.709 337.423C231.957 339.531 232.484 341.701 233.29 343.933ZM291.633 307.663C291.633 307.663 291.261 321.334 290.517 348.676L298.887 349.42C298.887 351.156 298.36 353.016 297.306 355H272.847L272.661 351.838C274.769 351.218 278.458 350.443 283.728 349.513C283.604 345.421 283.449 339.314 283.263 331.192C283.077 323.008 282.922 316.87 282.798 312.778C277.776 315.072 274.273 316.312 272.289 316.498C271.235 314.762 270.646 312.84 270.522 310.732L288.657 304.594C290.517 305.958 291.509 306.981 291.633 307.663ZM325.146 307.663C325.146 307.663 324.774 321.334 324.03 348.676L332.4 349.42C332.4 351.156 331.873 353.016 330.819 355H306.36L306.174 351.838C308.282 351.218 311.971 350.443 317.241 349.513C317.117 345.421 316.962 339.314 316.776 331.192C316.59 323.008 316.435 316.87 316.311 312.778C311.289 315.072 307.786 316.312 305.802 316.498C304.748 314.762 304.159 312.84 304.035 310.732L322.17 304.594C324.03 305.958 325.022 306.981 325.146 307.663ZM360.519 303.571C367.897 303.571 373.322 305.865 376.794 310.453C380.328 314.979 382.095 321.303 382.095 329.425C382.095 337.485 380.328 343.964 376.794 348.862C373.322 353.76 367.866 356.209 360.426 356.209C352.986 356.209 347.592 354.039 344.244 349.699C340.958 345.297 339.315 338.725 339.315 329.983C339.315 312.375 346.383 303.571 360.519 303.571ZM349.359 343.933C350.165 346.165 351.498 347.839 353.358 348.955C355.218 350.009 357.45 350.536 360.054 350.536C362.72 350.536 364.89 350.133 366.564 349.327C368.238 348.521 369.509 347.56 370.377 346.444C371.307 345.328 371.989 343.778 372.423 341.794C373.167 338.694 373.539 334.726 373.539 329.89C373.539 316.188 369.199 309.337 360.519 309.337C358.163 309.337 356.117 309.771 354.381 310.639C352.707 311.507 351.436 312.561 350.568 313.801C349.7 315.041 349.018 316.622 348.522 318.544C347.778 321.52 347.406 324.868 347.406 328.588C347.406 332.308 347.53 335.253 347.778 337.423C348.026 339.531 348.553 341.701 349.359 343.933ZM407.702 307.663C407.702 307.663 407.33 321.334 406.586 348.676L414.956 349.42C414.956 351.156 414.429 353.016 413.375 355H388.916L388.73 351.838C390.838 351.218 394.527 350.443 399.797 349.513C399.673 345.421 399.518 339.314 399.332 331.192C399.146 323.008 398.991 316.87 398.867 312.778C393.845 315.072 390.342 316.312 388.358 316.498C387.304 314.762 386.715 312.84 386.591 310.732L404.726 304.594C406.586 305.958 407.578 306.981 407.702 307.663ZM443.074 303.571C450.452 303.571 455.877 305.865 459.349 310.453C462.883 314.979 464.65 321.303 464.65 329.425C464.65 337.485 462.883 343.964 459.349 348.862C455.877 353.76 450.421 356.209 442.981 356.209C435.541 356.209 430.147 354.039 426.799 349.699C423.513 345.297 421.87 338.725 421.87 329.983C421.87 312.375 428.938 303.571 443.074 303.571ZM431.914 343.933C432.72 346.165 434.053 347.839 435.913 348.955C437.773 350.009 440.005 350.536 442.609 350.536C445.275 350.536 447.445 350.133 449.119 349.327C450.793 348.521 452.064 347.56 452.932 346.444C453.862 345.328 454.544 343.778 454.978 341.794C455.722 338.694 456.094 334.726 456.094 329.89C456.094 316.188 451.754 309.337 443.074 309.337C440.718 309.337 438.672 309.771 436.936 310.639C435.262 311.507 433.991 312.561 433.123 313.801C432.255 315.041 431.573 316.622 431.077 318.544C430.333 321.52 429.961 324.868 429.961 328.588C429.961 332.308 430.085 335.253 430.333 337.423C430.581 339.531 431.108 341.701 431.914 343.933ZM492.117 303.571C499.495 303.571 504.92 305.865 508.392 310.453C511.926 314.979 513.693 321.303 513.693 329.425C513.693 337.485 511.926 343.964 508.392 348.862C504.92 353.76 499.464 356.209 492.024 356.209C484.584 356.209 479.19 354.039 475.842 349.699C472.556 345.297 470.913 338.725 470.913 329.983C470.913 312.375 477.981 303.571 492.117 303.571ZM480.957 343.933C481.763 346.165 483.096 347.839 484.956 348.955C486.816 350.009 489.048 350.536 491.652 350.536C494.318 350.536 496.488 350.133 498.162 349.327C499.836 348.521 501.107 347.56 501.975 346.444C502.905 345.328 503.587 343.778 504.021 341.794C504.765 338.694 505.137 334.726 505.137 329.89C505.137 316.188 500.797 309.337 492.117 309.337C489.761 309.337 487.715 309.771 485.979 310.639C484.305 311.507 483.034 312.561 482.166 313.801C481.298 315.041 480.616 316.622 480.12 318.544C479.376 321.52 479.004 324.868 479.004 328.588C479.004 332.308 479.128 335.253 479.376 337.423C479.624 339.531 480.151 341.701 480.957 343.933ZM539.3 307.663C539.3 307.663 538.928 321.334 538.184 348.676L546.554 349.42C546.554 351.156 546.027 353.016 544.973 355H520.514L520.328 351.838C522.436 351.218 526.125 350.443 531.395 349.513C531.271 345.421 531.116 339.314 530.93 331.192C530.744 323.008 530.589 316.87 530.465 312.778C525.443 315.072 521.94 316.312 519.956 316.498C518.902 314.762 518.313 312.84 518.189 310.732L536.324 304.594C538.184 305.958 539.176 306.981 539.3 307.663ZM572.813 307.663C572.813 307.663 572.441 321.334 571.697 348.676L580.067 349.42C580.067 351.156 579.54 353.016 578.486 355H554.027L553.841 351.838C555.949 351.218 559.638 350.443 564.908 349.513C564.784 345.421 564.629 339.314 564.443 331.192C564.257 323.008 564.102 316.87 563.978 312.778C558.956 315.072 555.453 316.312 553.469 316.498C552.415 314.762 551.826 312.84 551.702 310.732L569.837 304.594C571.697 305.958 572.689 306.981 572.813 307.663ZM606.326 307.663C606.326 307.663 605.954 321.334 605.21 348.676L613.58 349.42C613.58 351.156 613.053 353.016 611.999 355H587.54L587.354 351.838C589.462 351.218 593.151 350.443 598.421 349.513C598.297 345.421 598.142 339.314 597.956 331.192C597.77 323.008 597.615 316.87 597.491 312.778C592.469 315.072 588.966 316.312 586.982 316.498C585.928 314.762 585.339 312.84 585.215 310.732L603.35 304.594C605.21 305.958 606.202 306.981 606.326 307.663ZM641.698 303.571C649.076 303.571 654.501 305.865 657.973 310.453C661.507 314.979 663.274 321.303 663.274 329.425C663.274 337.485 661.507 343.964 657.973 348.862C654.501 353.76 649.045 356.209 641.605 356.209C634.165 356.209 628.771 354.039 625.423 349.699C622.137 345.297 620.494 338.725 620.494 329.983C620.494 312.375 627.562 303.571 641.698 303.571ZM630.538 343.933C631.344 346.165 632.677 347.839 634.537 348.955C636.397 350.009 638.629 350.536 641.233 350.536C643.899 350.536 646.069 350.133 647.743 349.327C649.417 348.521 650.688 347.56 651.556 346.444C652.486 345.328 653.168 343.778 653.602 341.794C654.346 338.694 654.718 334.726 654.718 329.89C654.718 316.188 650.378 309.337 641.698 309.337C639.342 309.337 637.296 309.771 635.56 310.639C633.886 311.507 632.615 312.561 631.747 313.801C630.879 315.041 630.197 316.622 629.701 318.544C628.957 321.52 628.585 324.868 628.585 328.588C628.585 332.308 628.709 335.253 628.957 337.423C629.205 339.531 629.732 341.701 630.538 343.933ZM690.741 303.571C698.119 303.571 703.544 305.865 707.016 310.453C710.55 314.979 712.317 321.303 712.317 329.425C712.317 337.485 710.55 343.964 707.016 348.862C703.544 353.76 698.088 356.209 690.648 356.209C683.208 356.209 677.814 354.039 674.466 349.699C671.18 345.297 669.537 338.725 669.537 329.983C669.537 312.375 676.605 303.571 690.741 303.571ZM679.581 343.933C680.387 346.165 681.72 347.839 683.58 348.955C685.44 350.009 687.672 350.536 690.276 350.536C692.942 350.536 695.112 350.133 696.786 349.327C698.46 348.521 699.731 347.56 700.599 346.444C701.529 345.328 702.211 343.778 702.645 341.794C703.389 338.694 703.761 334.726 703.761 329.89C703.761 316.188 699.421 309.337 690.741 309.337C688.385 309.337 686.339 309.771 684.603 310.639C682.929 311.507 681.658 312.561 680.79 313.801C679.922 315.041 679.24 316.622 678.744 318.544C678 321.52 677.628 324.868 677.628 328.588C677.628 332.308 677.752 335.253 678 337.423C678.248 339.531 678.775 341.701 679.581 343.933Z" fill="url(#paint0_linear_6_19)" fill-opacity="0.552083"/>
</g>
<g filter="url(#filter1_f_6_19)">
<path d="M179.157 241.743C179.157 241.743 178.785 255.414 178.041 282.756L186.411 283.5C186.411 285.236 185.884 287.096 184.83 289.08H160.371L160.185 285.918C162.293 285.298 165.982 284.523 171.252 283.593C171.128 279.501 170.973 273.394 170.787 265.272C170.601 257.088 170.446 250.95 170.322 246.858C165.3 249.152 161.797 250.392 159.813 250.578C158.759 248.842 158.17 246.92 158.046 244.812L176.181 238.674C178.041 240.038 179.033 241.061 179.157 241.743ZM212.67 241.743C212.67 241.743 212.298 255.414 211.554 282.756L219.924 283.5C219.924 285.236 219.397 287.096 218.343 289.08H193.884L193.698 285.918C195.806 285.298 199.495 284.523 204.765 283.593C204.641 279.501 204.486 273.394 204.3 265.272C204.114 257.088 203.959 250.95 203.835 246.858C198.813 249.152 195.31 250.392 193.326 250.578C192.272 248.842 191.683 246.92 191.559 244.812L209.694 238.674C211.554 240.038 212.546 241.061 212.67 241.743ZM248.043 237.651C255.421 237.651 260.846 239.945 264.318 244.533C267.852 249.059 269.619 255.383 269.619 263.505C269.619 271.565 267.852 278.044 264.318 282.942C260.846 287.84 255.39 290.289 247.95 290.289C240.51 290.289 235.116 288.119 231.768 283.779C228.482 279.377 226.839 272.805 226.839 264.063C226.839 246.455 233.907 237.651 248.043 237.651ZM236.883 278.013C237.689 280.245 239.022 281.919 240.882 283.035C242.742 284.089 244.974 284.616 247.578 284.616C250.244 284.616 252.414 284.213 254.088 283.407C255.762 282.601 257.033 281.64 257.901 280.524C258.831 279.408 259.513 277.858 259.947 275.874C260.691 272.774 261.063 268.806 261.063 263.97C261.063 250.268 256.723 243.417 248.043 243.417C245.687 243.417 243.641 243.851 241.905 244.719C240.231 245.587 238.96 246.641 238.092 247.881C237.224 249.121 236.542 250.702 236.046 252.624C235.302 255.6 234.93 258.948 234.93 262.668C234.93 266.388 235.054 269.333 235.302 271.503C235.55 273.611 236.077 275.781 236.883 278.013ZM297.085 237.651C304.463 237.651 309.888 239.945 313.36 244.533C316.894 249.059 318.661 255.383 318.661 263.505C318.661 271.565 316.894 278.044 313.36 282.942C309.888 287.84 304.432 290.289 296.992 290.289C289.552 290.289 284.158 288.119 280.81 283.779C277.524 279.377 275.881 272.805 275.881 264.063C275.881 246.455 282.949 237.651 297.085 237.651ZM285.925 278.013C286.731 280.245 288.064 281.919 289.924 283.035C291.784 284.089 294.016 284.616 296.62 284.616C299.286 284.616 301.456 284.213 303.13 283.407C304.804 282.601 306.075 281.64 306.943 280.524C307.873 279.408 308.555 277.858 308.989 275.874C309.733 272.774 310.105 268.806 310.105 263.97C310.105 250.268 305.765 243.417 297.085 243.417C294.729 243.417 292.683 243.851 290.947 244.719C289.273 245.587 288.002 246.641 287.134 247.881C286.266 249.121 285.584 250.702 285.088 252.624C284.344 255.6 283.972 258.948 283.972 262.668C283.972 266.388 284.096 269.333 284.344 271.503C284.592 273.611 285.119 275.781 285.925 278.013ZM344.268 241.743C344.268 241.743 343.896 255.414 343.152 282.756L351.522 283.5C351.522 285.236 350.995 287.096 349.941 289.08H325.482L325.296 285.918C327.404 285.298 331.093 284.523 336.363 283.593C336.239 279.501 336.084 273.394 335.898 265.272C335.712 257.088 335.557 250.95 335.433 246.858C330.411 249.152 326.908 250.392 324.924 250.578C323.87 248.842 323.281 246.92 323.157 244.812L341.292 238.674C343.152 240.038 344.144 241.061 344.268 241.743ZM377.781 241.743C377.781 241.743 377.409 255.414 376.665 282.756L385.035 283.5C385.035 285.236 384.508 287.096 383.454 289.08H358.995L358.809 285.918C360.917 285.298 364.606 284.523 369.876 283.593C369.752 279.501 369.597 273.394 369.411 265.272C369.225 257.088 369.07 250.95 368.946 246.858C363.924 249.152 360.421 250.392 358.437 250.578C357.383 248.842 356.794 246.92 356.67 244.812L374.805 238.674C376.665 240.038 377.657 241.061 377.781 241.743ZM413.154 237.651C420.532 237.651 425.957 239.945 429.429 244.533C432.963 249.059 434.73 255.383 434.73 263.505C434.73 271.565 432.963 278.044 429.429 282.942C425.957 287.84 420.501 290.289 413.061 290.289C405.621 290.289 400.227 288.119 396.879 283.779C393.593 279.377 391.95 272.805 391.95 264.063C391.95 246.455 399.018 237.651 413.154 237.651ZM401.994 278.013C402.8 280.245 404.133 281.919 405.993 283.035C407.853 284.089 410.085 284.616 412.689 284.616C415.355 284.616 417.525 284.213 419.199 283.407C420.873 282.601 422.144 281.64 423.012 280.524C423.942 279.408 424.624 277.858 425.058 275.874C425.802 272.774 426.174 268.806 426.174 263.97C426.174 250.268 421.834 243.417 413.154 243.417C410.798 243.417 408.752 243.851 407.016 244.719C405.342 245.587 404.071 246.641 403.203 247.881C402.335 249.121 401.653 250.702 401.157 252.624C400.413 255.6 400.041 258.948 400.041 262.668C400.041 266.388 400.165 269.333 400.413 271.503C400.661 273.611 401.188 275.781 401.994 278.013ZM462.197 237.651C469.575 237.651 475 239.945 478.472 244.533C482.006 249.059 483.773 255.383 483.773 263.505C483.773 271.565 482.006 278.044 478.472 282.942C475 287.84 469.544 290.289 462.104 290.289C454.664 290.289 449.27 288.119 445.922 283.779C442.636 279.377 440.993 272.805 440.993 264.063C440.993 246.455 448.061 237.651 462.197 237.651ZM451.037 278.013C451.843 280.245 453.176 281.919 455.036 283.035C456.896 284.089 459.128 284.616 461.732 284.616C464.398 284.616 466.568 284.213 468.242 283.407C469.916 282.601 471.187 281.64 472.055 280.524C472.985 279.408 473.667 277.858 474.101 275.874C474.845 272.774 475.217 268.806 475.217 263.97C475.217 250.268 470.877 243.417 462.197 243.417C459.841 243.417 457.795 243.851 456.059 244.719C454.385 245.587 453.114 246.641 452.246 247.881C451.378 249.121 450.696 250.702 450.2 252.624C449.456 255.6 449.084 258.948 449.084 262.668C449.084 266.388 449.208 269.333 449.456 271.503C449.704 273.611 450.231 275.781 451.037 278.013ZM509.38 241.743C509.38 241.743 509.008 255.414 508.264 282.756L516.634 283.5C516.634 285.236 516.107 287.096 515.053 289.08H490.594L490.408 285.918C492.516 285.298 496.205 284.523 501.475 283.593C501.351 279.501 501.196 273.394 501.01 265.272C500.824 257.088 500.669 250.95 500.545 246.858C495.523 249.152 492.02 250.392 490.036 250.578C488.982 248.842 488.393 246.92 488.269 244.812L506.404 238.674C508.264 240.038 509.256 241.061 509.38 241.743ZM542.892 241.743C542.892 241.743 542.52 255.414 541.776 282.756L550.146 283.5C550.146 285.236 549.619 287.096 548.565 289.08H524.106L523.92 285.918C526.028 285.298 529.717 284.523 534.987 283.593C534.863 279.501 534.708 273.394 534.522 265.272C534.336 257.088 534.181 250.95 534.057 246.858C529.035 249.152 525.532 250.392 523.548 250.578C522.494 248.842 521.905 246.92 521.781 244.812L539.916 238.674C541.776 240.038 542.768 241.061 542.892 241.743ZM576.405 241.743C576.405 241.743 576.033 255.414 575.289 282.756L583.659 283.5C583.659 285.236 583.132 287.096 582.078 289.08H557.619L557.433 285.918C559.541 285.298 563.23 284.523 568.5 283.593C568.376 279.501 568.221 273.394 568.035 265.272C567.849 257.088 567.694 250.95 567.57 246.858C562.548 249.152 559.045 250.392 557.061 250.578C556.007 248.842 555.418 246.92 555.294 244.812L573.429 238.674C575.289 240.038 576.281 241.061 576.405 241.743ZM611.778 237.651C619.156 237.651 624.581 239.945 628.053 244.533C631.587 249.059 633.354 255.383 633.354 263.505C633.354 271.565 631.587 278.044 628.053 282.942C624.581 287.84 619.125 290.289 611.685 290.289C604.245 290.289 598.851 288.119 595.503 283.779C592.217 279.377 590.574 272.805 590.574 264.063C590.574 246.455 597.642 237.651 611.778 237.651ZM600.618 278.013C601.424 280.245 602.757 281.919 604.617 283.035C606.477 284.089 608.709 284.616 611.313 284.616C613.979 284.616 616.149 284.213 617.823 283.407C619.497 282.601 620.768 281.64 621.636 280.524C622.566 279.408 623.248 277.858 623.682 275.874C624.426 272.774 624.798 268.806 624.798 263.97C624.798 250.268 620.458 243.417 611.778 243.417C609.422 243.417 607.376 243.851 605.64 244.719C603.966 245.587 602.695 246.641 601.827 247.881C600.959 249.121 600.277 250.702 599.781 252.624C599.037 255.6 598.665 258.948 598.665 262.668C598.665 266.388 598.789 269.333 599.037 271.503C599.285 273.611 599.812 275.781 600.618 278.013ZM658.961 241.743C658.961 241.743 658.589 255.414 657.845 282.756L666.215 283.5C666.215 285.236 665.688 287.096 664.634 289.08H640.175L639.989 285.918C642.097 285.298 645.786 284.523 651.056 283.593C650.932 279.501 650.777 273.394 650.591 265.272C650.405 257.088 650.25 250.95 650.126 246.858C645.104 249.152 641.601 250.392 639.617 250.578C638.563 248.842 637.974 246.92 637.85 244.812L655.985 238.674C657.845 240.038 658.837 241.061 658.961 241.743ZM694.334 237.651C701.712 237.651 707.137 239.945 710.609 244.533C714.143 249.059 715.91 255.383 715.91 263.505C715.91 271.565 714.143 278.044 710.609 282.942C707.137 287.84 701.681 290.289 694.241 290.289C686.801 290.289 681.407 288.119 678.059 283.779C674.773 279.377 673.13 272.805 673.13 264.063C673.13 246.455 680.198 237.651 694.334 237.651ZM683.174 278.013C683.98 280.245 685.313 281.919 687.173 283.035C689.033 284.089 691.265 284.616 693.869 284.616C696.535 284.616 698.705 284.213 700.379 283.407C702.053 282.601 703.324 281.64 704.192 280.524C705.122 279.408 705.804 277.858 706.238 275.874C706.982 272.774 707.354 268.806 707.354 263.97C707.354 250.268 703.014 243.417 694.334 243.417C691.978 243.417 689.932 243.851 688.196 244.719C686.522 245.587 685.251 246.641 684.383 247.881C683.515 249.121 682.833 250.702 682.337 252.624C681.593 255.6 681.221 258.948 681.221 262.668C681.221 266.388 681.345 269.333 681.593 271.503C681.841 273.611 682.368 275.781 683.174 278.013Z" fill="url(#paint1_linear_6_19)" fill-opacity="0.552083"/>
</g>
<g filter="url(#filter2_f_6_19)">
<path d="M283.119 172.635C290.497 172.635 295.922 174.929 299.394 179.517C302.928 184.043 304.695 190.367 304.695 198.489C304.695 206.549 302.928 213.028 299.394 217.926C295.922 222.824 290.466 225.273 283.026 225.273C275.586 225.273 270.192 223.103 266.844 218.763C263.558 214.361 261.915 207.789 261.915 199.047C261.915 181.439 268.983 172.635 283.119 172.635ZM271.959 212.997C272.765 215.229 274.098 216.903 275.958 218.019C277.818 219.073 280.05 219.6 282.654 219.6C285.32 219.6 287.49 219.197 289.164 218.391C290.838 217.585 292.109 216.624 292.977 215.508C293.907 214.392 294.589 212.842 295.023 210.858C295.767 207.758 296.139 203.79 296.139 198.954C296.139 185.252 291.799 178.401 283.119 178.401C280.763 178.401 278.717 178.835 276.981 179.703C275.307 180.571 274.036 181.625 273.168 182.865C272.3 184.105 271.618 185.686 271.122 187.608C270.378 190.584 270.006 193.932 270.006 197.652C270.006 201.372 270.13 204.317 270.378 206.487C270.626 208.595 271.153 210.765 271.959 212.997ZM330.302 176.727C330.302 176.727 329.93 190.398 329.186 217.74L337.556 218.484C337.556 220.22 337.029 222.08 335.975 224.064H311.516L311.33 220.902C313.438 220.282 317.127 219.507 322.397 218.577C322.273 214.485 322.118 208.378 321.932 200.256C321.746 192.072 321.591 185.934 321.467 181.842C316.445 184.136 312.942 185.376 310.958 185.562C309.904 183.826 309.315 181.904 309.191 179.796L327.326 173.658C329.186 175.022 330.178 176.045 330.302 176.727ZM363.814 176.727C363.814 176.727 363.442 190.398 362.698 217.74L371.068 218.484C371.068 220.22 370.541 222.08 369.487 224.064H345.028L344.842 220.902C346.95 220.282 350.639 219.507 355.909 218.577C355.785 214.485 355.63 208.378 355.444 200.256C355.258 192.072 355.103 185.934 354.979 181.842C349.957 184.136 346.454 185.376 344.47 185.562C343.416 183.826 342.827 181.904 342.703 179.796L360.838 173.658C362.698 175.022 363.69 176.045 363.814 176.727ZM399.187 172.635C406.565 172.635 411.99 174.929 415.462 179.517C418.996 184.043 420.763 190.367 420.763 198.489C420.763 206.549 418.996 213.028 415.462 217.926C411.99 222.824 406.534 225.273 399.094 225.273C391.654 225.273 386.26 223.103 382.912 218.763C379.626 214.361 377.983 207.789 377.983 199.047C377.983 181.439 385.051 172.635 399.187 172.635ZM388.027 212.997C388.833 215.229 390.166 216.903 392.026 218.019C393.886 219.073 396.118 219.6 398.722 219.6C401.388 219.6 403.558 219.197 405.232 218.391C406.906 217.585 408.177 216.624 409.045 215.508C409.975 214.392 410.657 212.842 411.091 210.858C411.835 207.758 412.207 203.79 412.207 198.954C412.207 185.252 407.867 178.401 399.187 178.401C396.831 178.401 394.785 178.835 393.049 179.703C391.375 180.571 390.104 181.625 389.236 182.865C388.368 184.105 387.686 185.686 387.19 187.608C386.446 190.584 386.074 193.932 386.074 197.652C386.074 201.372 386.198 204.317 386.446 206.487C386.694 208.595 387.221 210.765 388.027 212.997ZM448.23 172.635C455.608 172.635 461.033 174.929 464.505 179.517C468.039 184.043 469.806 190.367 469.806 198.489C469.806 206.549 468.039 213.028 464.505 217.926C461.033 222.824 455.577 225.273 448.137 225.273C440.697 225.273 435.303 223.103 431.955 218.763C428.669 214.361 427.026 207.789 427.026 199.047C427.026 181.439 434.094 172.635 448.23 172.635ZM437.07 212.997C437.876 215.229 439.209 216.903 441.069 218.019C442.929 219.073 445.161 219.6 447.765 219.6C450.431 219.6 452.601 219.197 454.275 218.391C455.949 217.585 457.22 216.624 458.088 215.508C459.018 214.392 459.7 212.842 460.134 210.858C460.878 207.758 461.25 203.79 461.25 198.954C461.25 185.252 456.91 178.401 448.23 178.401C445.874 178.401 443.828 178.835 442.092 179.703C440.418 180.571 439.147 181.625 438.279 182.865C437.411 184.105 436.729 185.686 436.233 187.608C435.489 190.584 435.117 193.932 435.117 197.652C435.117 201.372 435.241 204.317 435.489 206.487C435.737 208.595 436.264 210.765 437.07 212.997ZM495.413 176.727C495.413 176.727 495.041 190.398 494.297 217.74L502.667 218.484C502.667 220.22 502.14 222.08 501.086 224.064H476.627L476.441 220.902C478.549 220.282 482.238 219.507 487.508 218.577C487.384 214.485 487.229 208.378 487.043 200.256C486.857 192.072 486.702 185.934 486.578 181.842C481.556 184.136 478.053 185.376 476.069 185.562C475.015 183.826 474.426 181.904 474.302 179.796L492.437 173.658C494.297 175.022 495.289 176.045 495.413 176.727ZM530.786 172.635C538.164 172.635 543.589 174.929 547.061 179.517C550.595 184.043 552.362 190.367 552.362 198.489C552.362 206.549 550.595 213.028 547.061 217.926C543.589 222.824 538.133 225.273 530.693 225.273C523.253 225.273 517.859 223.103 514.511 218.763C511.225 214.361 509.582 207.789 509.582 199.047C509.582 181.439 516.65 172.635 530.786 172.635ZM519.626 212.997C520.432 215.229 521.765 216.903 523.625 218.019C525.485 219.073 527.717 219.6 530.321 219.6C532.987 219.6 535.157 219.197 536.831 218.391C538.505 217.585 539.776 216.624 540.644 215.508C541.574 214.392 542.256 212.842 542.69 210.858C543.434 207.758 543.806 203.79 543.806 198.954C543.806 185.252 539.466 178.401 530.786 178.401C528.43 178.401 526.384 178.835 524.648 179.703C522.974 180.571 521.703 181.625 520.835 182.865C519.967 184.105 519.285 185.686 518.789 187.608C518.045 190.584 517.673 193.932 517.673 197.652C517.673 201.372 517.797 204.317 518.045 206.487C518.293 208.595 518.82 210.765 519.626 212.997ZM577.969 176.727C577.969 176.727 577.597 190.398 576.853 217.74L585.223 218.484C585.223 220.22 584.696 222.08 583.642 224.064H559.183L558.997 220.902C561.105 220.282 564.794 219.507 570.064 218.577C569.94 214.485 569.785 208.378 569.599 200.256C569.413 192.072 569.258 185.934 569.134 181.842C564.112 184.136 560.609 185.376 558.625 185.562C557.571 183.826 556.982 181.904 556.858 179.796L574.993 173.658C576.853 175.022 577.845 176.045 577.969 176.727ZM613.341 172.635C620.719 172.635 626.144 174.929 629.616 179.517C633.15 184.043 634.917 190.367 634.917 198.489C634.917 206.549 633.15 213.028 629.616 217.926C626.144 222.824 620.688 225.273 613.248 225.273C605.808 225.273 600.414 223.103 597.066 218.763C593.78 214.361 592.137 207.789 592.137 199.047C592.137 181.439 599.205 172.635 613.341 172.635ZM602.181 212.997C602.987 215.229 604.32 216.903 606.18 218.019C608.04 219.073 610.272 219.6 612.876 219.6C615.542 219.6 617.712 219.197 619.386 218.391C621.06 217.585 622.331 216.624 623.199 215.508C624.129 214.392 624.811 212.842 625.245 210.858C625.989 207.758 626.361 203.79 626.361 198.954C626.361 185.252 622.021 178.401 613.341 178.401C610.985 178.401 608.939 178.835 607.203 179.703C605.529 180.571 604.258 181.625 603.39 182.865C602.522 184.105 601.84 185.686 601.344 187.608C600.6 190.584 600.228 193.932 600.228 197.652C600.228 201.372 600.352 204.317 600.6 206.487C600.848 208.595 601.375 210.765 602.181 212.997ZM660.524 176.727C660.524 176.727 660.152 190.398 659.408 217.74L667.778 218.484C667.778 220.22 667.251 222.08 666.197 224.064H641.738L641.552 220.902C643.66 220.282 647.349 219.507 652.619 218.577C652.495 214.485 652.34 208.378 652.154 200.256C651.968 192.072 651.813 185.934 651.689 181.842C646.667 184.136 643.164 185.376 641.18 185.562C640.126 183.826 639.537 181.904 639.413 179.796L657.548 173.658C659.408 175.022 660.4 176.045 660.524 176.727ZM695.897 172.635C703.275 172.635 708.7 174.929 712.172 179.517C715.706 184.043 717.473 190.367 717.473 198.489C717.473 206.549 715.706 213.028 712.172 217.926C708.7 222.824 703.244 225.273 695.804 225.273C688.364 225.273 682.97 223.103 679.622 218.763C676.336 214.361 674.693 207.789 674.693 199.047C674.693 181.439 681.761 172.635 695.897 172.635ZM684.737 212.997C685.543 215.229 686.876 216.903 688.736 218.019C690.596 219.073 692.828 219.6 695.432 219.6C698.098 219.6 700.268 219.197 701.942 218.391C703.616 217.585 704.887 216.624 705.755 215.508C706.685 214.392 707.367 212.842 707.801 210.858C708.545 207.758 708.917 203.79 708.917 198.954C708.917 185.252 704.577 178.401 695.897 178.401C693.541 178.401 691.495 178.835 689.759 179.703C688.085 180.571 686.814 181.625 685.946 182.865C685.078 184.105 684.396 185.686 683.9 187.608C683.156 190.584 682.784 193.932 682.784 197.652C682.784 201.372 682.908 204.317 683.156 206.487C683.404 208.595 683.931 210.765 684.737 212.997Z" fill="url(#paint2_linear_6_19)" fill-opacity="0.552083"/>
</g>
<g filter="url(#filter3_f_6_19)">
<path d="M418.038 104.523C425.416 104.523 430.841 106.817 434.313 111.405C437.847 115.931 439.614 122.255 439.614 130.377C439.614 138.437 437.847 144.916 434.313 149.814C430.841 154.712 425.385 157.161 417.945 157.161C410.505 157.161 405.111 154.991 401.763 150.651C398.477 146.249 396.834 139.677 396.834 130.935C396.834 113.327 403.902 104.523 418.038 104.523ZM406.878 144.885C407.684 147.117 409.017 148.791 410.877 149.907C412.737 150.961 414.969 151.488 417.573 151.488C420.239 151.488 422.409 151.085 424.083 150.279C425.757 149.473 427.028 148.512 427.896 147.396C428.826 146.28 429.508 144.73 429.942 142.746C430.686 139.646 431.058 135.678 431.058 130.842C431.058 117.14 426.718 110.289 418.038 110.289C415.682 110.289 413.636 110.723 411.9 111.591C410.226 112.459 408.955 113.513 408.087 114.753C407.219 115.993 406.537 117.574 406.041 119.496C405.297 122.472 404.925 125.82 404.925 129.54C404.925 133.26 405.049 136.205 405.297 138.375C405.545 140.483 406.072 142.653 406.878 144.885ZM465.221 108.615C465.221 108.615 464.849 122.286 464.105 149.628L472.475 150.372C472.475 152.108 471.948 153.968 470.894 155.952H446.435L446.249 152.79C448.357 152.17 452.046 151.395 457.316 150.465C457.192 146.373 457.037 140.266 456.851 132.144C456.665 123.96 456.51 117.822 456.386 113.73C451.364 116.024 447.861 117.264 445.877 117.45C444.823 115.714 444.234 113.792 444.11 111.684L462.245 105.546C464.105 106.91 465.097 107.933 465.221 108.615ZM500.594 104.523C507.972 104.523 513.397 106.817 516.869 111.405C520.403 115.931 522.17 122.255 522.17 130.377C522.17 138.437 520.403 144.916 516.869 149.814C513.397 154.712 507.941 157.161 500.501 157.161C493.061 157.161 487.667 154.991 484.319 150.651C481.033 146.249 479.39 139.677 479.39 130.935C479.39 113.327 486.458 104.523 500.594 104.523ZM489.434 144.885C490.24 147.117 491.573 148.791 493.433 149.907C495.293 150.961 497.525 151.488 500.129 151.488C502.795 151.488 504.965 151.085 506.639 150.279C508.313 149.473 509.584 148.512 510.452 147.396C511.382 146.28 512.064 144.73 512.498 142.746C513.242 139.646 513.614 135.678 513.614 130.842C513.614 117.14 509.274 110.289 500.594 110.289C498.238 110.289 496.192 110.723 494.456 111.591C492.782 112.459 491.511 113.513 490.643 114.753C489.775 115.993 489.093 117.574 488.597 119.496C487.853 122.472 487.481 125.82 487.481 129.54C487.481 133.26 487.605 136.205 487.853 138.375C488.101 140.483 488.628 142.653 489.434 144.885ZM547.777 108.615C547.777 108.615 547.405 122.286 546.661 149.628L555.031 150.372C555.031 152.108 554.504 153.968 553.45 155.952H528.991L528.805 152.79C530.913 152.17 534.602 151.395 539.872 150.465C539.748 146.373 539.593 140.266 539.407 132.144C539.221 123.96 539.066 117.822 538.942 113.73C533.92 116.024 530.417 117.264 528.433 117.45C527.379 115.714 526.79 113.792 526.666 111.684L544.801 105.546C546.661 106.91 547.653 107.933 547.777 108.615ZM581.29 108.615C581.29 108.615 580.918 122.286 580.174 149.628L588.544 150.372C588.544 152.108 588.017 153.968 586.963 155.952H562.504L562.318 152.79C564.426 152.17 568.115 151.395 573.385 150.465C573.261 146.373 573.106 140.266 572.92 132.144C572.734 123.96 572.579 117.822 572.455 113.73C567.433 116.024 563.93 117.264 561.946 117.45C560.892 115.714 560.303 113.792 560.179 111.684L578.314 105.546C580.174 106.91 581.166 107.933 581.29 108.615ZM616.662 104.523C624.04 104.523 629.465 106.817 632.937 111.405C636.471 115.931 638.238 122.255 638.238 130.377C638.238 138.437 636.471 144.916 632.937 149.814C629.465 154.712 624.009 157.161 616.569 157.161C609.129 157.161 603.735 154.991 600.387 150.651C597.101 146.249 595.458 139.677 595.458 130.935C595.458 113.327 602.526 104.523 616.662 104.523ZM605.502 144.885C606.308 147.117 607.641 148.791 609.501 149.907C611.361 150.961 613.593 151.488 616.197 151.488C618.863 151.488 621.033 151.085 622.707 150.279C624.381 149.473 625.652 148.512 626.52 147.396C627.45 146.28 628.132 144.73 628.566 142.746C629.31 139.646 629.682 135.678 629.682 130.842C629.682 117.14 625.342 110.289 616.662 110.289C614.306 110.289 612.26 110.723 610.524 111.591C608.85 112.459 607.579 113.513 606.711 114.753C605.843 115.993 605.161 117.574 604.665 119.496C603.921 122.472 603.549 125.82 603.549 129.54C603.549 133.26 603.673 136.205 603.921 138.375C604.169 140.483 604.696 142.653 605.502 144.885ZM665.705 104.523C673.083 104.523 678.508 106.817 681.98 111.405C685.514 115.931 687.281 122.255 687.281 130.377C687.281 138.437 685.514 144.916 681.98 149.814C678.508 154.712 673.052 157.161 665.612 157.161C658.172 157.161 652.778 154.991 649.43 150.651C646.144 146.249 644.501 139.677 644.501 130.935C644.501 113.327 651.569 104.523 665.705 104.523ZM654.545 144.885C655.351 147.117 656.684 148.791 658.544 149.907C660.404 150.961 662.636 151.488 665.24 151.488C667.906 151.488 670.076 151.085 671.75 150.279C673.424 149.473 674.695 148.512 675.563 147.396C676.493 146.28 677.175 144.73 677.609 142.746C678.353 139.646 678.725 135.678 678.725 130.842C678.725 117.14 674.385 110.289 665.705 110.289C663.349 110.289 661.303 110.723 659.567 111.591C657.893 112.459 656.622 113.513 655.754 114.753C654.886 115.993 654.204 117.574 653.708 119.496C652.964 122.472 652.592 125.82 652.592 129.54C652.592 133.26 652.716 136.205 652.964 138.375C653.212 140.483 653.739 142.653 654.545 144.885ZM712.888 108.615C712.888 108.615 712.516 122.286 711.772 149.628L720.142 150.372C720.142 152.108 719.615 153.968 718.561 155.952H694.102L693.916 152.79C696.024 152.17 699.713 151.395 704.983 150.465C704.859 146.373 704.704 140.266 704.518 132.144C704.332 123.96 704.177 117.822 704.053 113.73C699.031 116.024 695.528 117.264 693.544 117.45C692.49 115.714 691.901 113.792 691.777 111.684L709.912 105.546C711.772 106.91 712.764 107.933 712.888 108.615Z" fill="url(#paint3_linear_6_19)" fill-opacity="0.552083"/>
</g>
<g filter="url(#filter4_f_6_19)">
<path d="M585.132 45.663C585.132 45.663 584.76 59.334 584.016 86.676L592.386 87.42C592.386 89.156 591.859 91.016 590.805 93H566.346L566.16 89.838C568.268 89.218 571.957 88.443 577.227 87.513C577.103 83.421 576.948 77.314 576.762 69.192C576.576 61.008 576.421 54.87 576.297 50.778C571.275 53.072 567.772 54.312 565.788 54.498C564.734 52.762 564.145 50.84 564.021 48.732L582.156 42.594C584.016 43.958 585.008 44.981 585.132 45.663ZM620.504 41.571C627.882 41.571 633.307 43.865 636.779 48.453C640.313 52.979 642.08 59.303 642.08 67.425C642.08 75.485 640.313 81.964 636.779 86.862C633.307 91.76 627.851 94.209 620.411 94.209C612.971 94.209 607.577 92.039 604.229 87.699C600.943 83.297 599.3 76.725 599.3 67.983C599.3 50.375 606.368 41.571 620.504 41.571ZM609.344 81.933C610.15 84.165 611.483 85.839 613.343 86.955C615.203 88.009 617.435 88.536 620.039 88.536C622.705 88.536 624.875 88.133 626.549 87.327C628.223 86.521 629.494 85.56 630.362 84.444C631.292 83.328 631.974 81.778 632.408 79.794C633.152 76.694 633.524 72.726 633.524 67.89C633.524 54.188 629.184 47.337 620.504 47.337C618.148 47.337 616.102 47.771 614.366 48.639C612.692 49.507 611.421 50.561 610.553 51.801C609.685 53.041 609.003 54.622 608.507 56.544C607.763 59.52 607.391 62.868 607.391 66.588C607.391 70.308 607.515 73.253 607.763 75.423C608.011 77.531 608.538 79.701 609.344 81.933ZM667.687 45.663C667.687 45.663 667.315 59.334 666.571 86.676L674.941 87.42C674.941 89.156 674.414 91.016 673.36 93H648.901L648.715 89.838C650.823 89.218 654.512 88.443 659.782 87.513C659.658 83.421 659.503 77.314 659.317 69.192C659.131 61.008 658.976 54.87 658.852 50.778C653.83 53.072 650.327 54.312 648.343 54.498C647.289 52.762 646.7 50.84 646.576 48.732L664.711 42.594C666.571 43.958 667.563 44.981 667.687 45.663ZM701.2 45.663C701.2 45.663 700.828 59.334 700.084 86.676L708.454 87.42C708.454 89.156 707.927 91.016 706.873 93H682.414L682.228 89.838C684.336 89.218 688.025 88.443 693.295 87.513C693.171 83.421 693.016 77.314 692.83 69.192C692.644 61.008 692.489 54.87 692.365 50.778C687.343 53.072 683.84 54.312 681.856 54.498C680.802 52.762 680.213 50.84 680.089 48.732L698.224 42.594C700.084 43.958 701.076 44.981 701.2 45.663Z" fill="url(#paint4_linear_6_19)" fill-opacity="0.552083"/>
</g>
<defs>
<filter id="filter0_f_6_19" x="0.092001" y="294.571" width="721.225" height="70.638" filterUnits="userSpaceOnUse" color-interpolation-filters="sRGB">
<feFlood flood-opacity="0" result="BackgroundImageFix"/>
<feBlend mode="normal" in="SourceGraphic" in2="BackgroundImageFix" result="shape"/>
<feGaussianBlur stdDeviation="4.5" result="effect1_foregroundBlur_6_19"/>
</filter>
<filter id="filter1_f_6_19" x="149.046" y="228.651" width="575.863" height="70.638" filterUnits="userSpaceOnUse" color-interpolation-filters="sRGB">
<feFlood flood-opacity="0" result="BackgroundImageFix"/>
<feBlend mode="normal" in="SourceGraphic" in2="BackgroundImageFix" result="shape"/>
<feGaussianBlur stdDeviation="4.5" result="effect1_foregroundBlur_6_19"/>
</filter>
<filter id="filter2_f_6_19" x="252.915" y="163.635" width="473.558" height="70.638" filterUnits="userSpaceOnUse" color-interpolation-filters="sRGB">
<feFlood flood-opacity="0" result="BackgroundImageFix"/>
<feBlend mode="normal" in="SourceGraphic" in2="BackgroundImageFix" result="shape"/>
<feGaussianBlur stdDeviation="4.5" result="effect1_foregroundBlur_6_19"/>
</filter>
<filter id="filter3_f_6_19" x="387.834" y="95.523" width="341.308" height="70.638" filterUnits="userSpaceOnUse" color-interpolation-filters="sRGB">
<feFlood flood-opacity="0" result="BackgroundImageFix"/>
<feBlend mode="normal" in="SourceGraphic" in2="BackgroundImageFix" result="shape"/>
<feGaussianBlur stdDeviation="4.5" result="effect1_foregroundBlur_6_19"/>
</filter>
<filter id="filter4_f_6_19" x="555.021" y="32.571" width="162.433" height="70.638" filterUnits="userSpaceOnUse" color-interpolation-filters="sRGB">
<feFlood flood-opacity="0" result="BackgroundImageFix"/>
<feBlend mode="normal" in="SourceGraphic" in2="BackgroundImageFix" result="shape"/>
<feGaussianBlur stdDeviation="4.5" result="effect1_foregroundBlur_6_19"/>
</filter>
<linearGradient id="paint0_linear_6_19" x1="47.9672" y1="308" x2="868" y2="308" gradientUnits="userSpaceOnUse">
<stop stop-color="#7000FF"/>
<stop offset="0.9999" stop-color="#F9F4FF"/>
<stop offset="1" stop-color="#7000FF" stop-opacity="0"/>
</linearGradient>
<linearGradient id="paint1_linear_6_19" x1="189.792" y1="258.516" x2="840.044" y2="258.516" gradientUnits="userSpaceOnUse">
<stop stop-color="#7000FF"/>
<stop offset="0.9999" stop-color="#F9F4FF"/>
<stop offset="1" stop-color="#7000FF" stop-opacity="0"/>
</linearGradient>
<linearGradient id="paint2_linear_6_19" x1="285.781" y1="193.5" x2="819.38" y2="193.5" gradientUnits="userSpaceOnUse">
<stop stop-color="#7000FF"/>
<stop offset="0.9999" stop-color="#F9F4FF"/>
<stop offset="1" stop-color="#7000FF" stop-opacity="0"/>
</linearGradient>
<linearGradient id="paint3_linear_6_19" x1="412.773" y1="125.388" x2="795.07" y2="125.388" gradientUnits="userSpaceOnUse">
<stop stop-color="#7000FF"/>
<stop offset="0.9999" stop-color="#F9F4FF"/>
<stop offset="1" stop-color="#7000FF" stop-opacity="0"/>
</linearGradient>
<linearGradient id="paint4_linear_6_19" x1="570.773" y1="62.436" x2="744.02" y2="62.436" gradientUnits="userSpaceOnUse">
<stop stop-color="#7000FF"/>
<stop offset="0.9999" stop-color="#F9F4FF"/>
<stop offset="1" stop-color="#7000FF" stop-opacity="0"/>
</linearGradient>
</defs>
</svg>
