<svg width="138" height="138" viewBox="0 0 138 138" fill="none" xmlns="http://www.w3.org/2000/svg">
<g clip-path="url(#clip0_18_41)">
<path d="M68.9404 137.651L29.1146 126.595L20.2394 27.0519H117.761L108.876 126.58L68.9404 137.651Z" fill="#5800CA"/>
<path d="M101.27 120.242L108.862 35.1908H69V129.189L101.27 120.242Z" fill="#7000FF"/>
<path d="M40.5854 72.1102L41.6794 84.3188H69V72.1102H40.5854ZM38.3866 47.3998L39.4963 59.6084H69V47.3998H38.3866ZM69 103.817L68.9465 103.831L55.3499 100.16L54.4806 90.4233H42.2249L43.9352 109.593L68.9438 116.535L69 116.519V103.817Z" fill="#EBEBEB"/>
<path d="M43.1906 0H57.9768V6.18362H49.3742V12.3672H57.9776V18.5505H43.1906V0ZM60.9345 0H75.7211V5.37703H67.1181V6.45236H75.7211V18.8196H60.9348V13.1731H69.5379V12.0977H60.9341V0H60.9345ZM78.6787 0H93.4654V5.37703H84.8624V6.45236H93.4654V18.8196H78.6787V13.1731H87.2818V12.0977H78.6791V0H78.6787Z" fill="#5800CA"/>
<path d="M97.3366 72.1102L99.5404 47.3998H68.958V59.6084H86.1609L85.0501 72.1102H68.958V84.3188H83.9915L82.5741 100.152L68.9576 103.828V116.529L93.986 109.593L94.1695 107.53L97.0389 75.3886L97.3366 72.1102Z" fill="white"/>
</g>
<defs>
<clipPath id="clip0_18_41">
<rect width="138" height="138" fill="white"/>
</clipPath>
</defs>
</svg>
