<svg xmlns="http://www.w3.org/2000/svg" xmlns:svgjs="http://svgjs.com/svgjs" xmlns:xlink="http://www.w3.org/1999/xlink" width="288" height="288"><svg xmlns="http://www.w3.org/2000/svg" width="288" height="288" version="1.0" viewBox="0 0 981 934"><path fill="#7000ff" d="M1895 9315 c-146 -40 -360 -135 -495 -221 -194 -123 -560 -425 -736-605 -208 -214 -353 -412 -470 -641 -158 -310 -213 -606 -166 -883 110 -638
658 -1711 1386 -2710 880 -1209 1844 -2118 3123 -2943 743 -479 1523 -879
2175 -1113 158 -56 397 -124 552 -156 117 -24 152 -27 336 -27 226 0 310 12
500 74 450 148 1052 610 1404 1076 151 202 232 353 278 520 28 103 31 305 5
373 -34 89 -111 187 -281 356 -176 175 -306 288 -604 519 -376 292 -891 634
-1158 768 l-162 81 -102 5 c-319 15 -448 -117 -823 -843 -164 -319 -203 -379
-300 -472 -201 -190 -445 -254 -672 -174 -95 33 -484 263 -790 466 -497 329
-850 620 -1311 1080 -536 535 -870 966 -1093 1410 -81 161 -92 194 -98 300 -7
116 14 214 67 322 82 165 166 221 595 394 289 115 627 312 757 440 134 131
166 268 104 448 -81 238 -344 725 -587 1086 -286 427 -497 670 -738 850 -107
80 -336 199 -422 220 -78 18 -207 18 -274 0z" class="color000 svgShape" transform="matrix(.1 0 0 -.1 0 934)"/></svg></svg>