<svg width="242" height="267" viewBox="0 0 242 267" fill="none" xmlns="http://www.w3.org/2000/svg">
<g clip-path="url(#clip0_46_2)">
<path d="M91.6711 252.727L81.5472 129L202.453 129.249L191.748 252.727L142.456 267L91.6711 252.727Z" fill="#5800CA"/>
<path d="M142.456 255.051V140.783L192.246 140.949L183.367 243.184L142.456 255.051Z" fill="#7000FF"/>
<path d="M137.125 154.351H123.962V230.405L113.724 228.455V218.217L101.536 216.267V239.18L137.125 248.443V154.351ZM146.999 154.351H183.439L181.002 168.928H160.91V192.849H181.002L178.564 241.13L146.999 248.443V233.33L168.326 226.017L169.558 206.029L146.999 209.295V154.351Z" fill="white"/>
</g>
<g clip-path="url(#clip1_46_2)">
<path d="M68.9404 178.651L29.1146 167.595L20.2394 68.0519H117.761L108.876 167.58L68.9404 178.651V178.651Z" fill="#5800CA"/>
<path d="M101.27 161.242L108.862 76.1908H69V170.189L101.27 161.242V161.242Z" fill="#7000FF"/>
<path d="M40.5854 113.11L41.6794 125.319H69V113.11H40.5854ZM38.3866 88.3998L39.4963 100.608H69V88.3998H38.3866V88.3998ZM69 144.817L68.9465 144.831L55.3499 141.16L54.4806 131.423H42.2249L43.9352 150.593L68.9438 157.535L69 157.519V144.817Z" fill="#EBEBEB"/>
<path d="M43.1906 41H57.9768V47.1836H49.3742V53.3672H57.9776V59.5505H43.1906V41ZM60.9345 41H75.7211V46.377H67.1181V47.4524H75.7211V59.8196H60.9348V54.1731H69.5379V53.0977H60.9341V41H60.9345ZM78.6787 41H93.4654V46.377H84.8624V47.4524H93.4654V59.8196H78.6787V54.1731H87.2818V53.0977H78.6791V41H78.6787Z" fill="#5800CA"/>
<path d="M97.3366 113.11L99.5404 88.3998H68.958V100.608H86.1609L85.0501 113.11H68.958V125.319H83.9915L82.5741 141.152L68.9576 144.828V157.529L93.986 150.593L94.1695 148.53L97.0389 116.389L97.3366 113.11V113.11Z" fill="white"/>
</g>
<g clip-path="url(#clip2_46_2)">
<path d="M204.761 41.0519L195.876 140.58L155.94 151.651L116.115 140.595L107.239 41.0519H204.761Z" fill="#5800CA"/>
<path d="M156 143.189L188.27 134.242L195.862 49.1908H156V143.189Z" fill="#7000FF"/>
<path d="M138.729 73.6084H156V61.3998H125.387L125.679 64.6751L128.679 98.3188H156V86.1102H139.845L138.729 73.6084V73.6084ZM141.481 104.423H129.225L130.935 123.593L155.944 130.535L156 130.519V117.817L155.946 117.831L142.35 114.16L141.481 104.423V104.423Z" fill="#EBEBEB"/>
<path d="M116.313 14H122.517V20.1297H128.192V14H134.397V32.5623H128.193V26.3466H122.517V32.5623H116.313V14H116.313ZM142.556 20.1557H137.094V14H154.225V20.1557H148.761V32.5623H142.557V20.1557H142.556H142.556ZM156.944 14H163.413L167.393 20.5223L171.368 14H177.84V32.5623H171.661V23.3618L167.393 29.9617H167.286L163.015 23.3618V32.5623H156.944V14ZM180.928 14H187.134V26.4269H195.859V32.5623H180.928V14H180.928Z" fill="#5800CA"/>
<path d="M155.958 98.3188H170.992L169.574 114.152L155.958 117.828V130.529L180.986 123.593L181.17 121.53L184.039 89.3886L184.337 86.1102H155.958V98.3188ZM155.958 73.5786V73.6084H185.448L185.692 70.8644L186.249 64.6751L186.54 61.3998H155.958V73.5789V73.5786Z" fill="white"/>
</g>
<defs>
<clipPath id="clip0_46_2">
<rect width="138" height="138" fill="white" transform="translate(73 129)"/>
</clipPath>
<clipPath id="clip1_46_2">
<rect width="138" height="138" fill="white" transform="translate(0 41)"/>
</clipPath>
<clipPath id="clip2_46_2">
<rect width="138" height="138" fill="white" transform="translate(104)"/>
</clipPath>
</defs>
</svg>
